<svg width="11" height="12" viewBox="0 0 11 12" fill="none" xmlns="http://www.w3.org/2000/svg">
<path d="M1.92253 5.83594L6.46548 10.6715L5.48582 11.7143L0.942871 6.8787L1.92253 5.83594Z" fill="white"/>
<path d="M10.0571 6.87866L5.51416 11.7142L4.5345 10.6715L9.07745 5.8359L10.0571 6.87866Z" fill="white"/>
<path d="M2.78294 3.33264L6.46543 7.25233L5.48577 8.29509L1.80328 4.3754L2.78294 3.33264Z" fill="white"/>
<path d="M9.20439 4.36707L5.51415 8.29501L4.53449 7.25224L8.22473 3.3243L9.20439 4.36707Z" fill="white"/>
<path d="M3.75029 0.942871L6.46549 3.83297L5.48583 4.87573L2.77063 1.98563L3.75029 0.942871Z" fill="white"/>
<path d="M8.16991 2.04895L5.51425 4.87566L4.5346 3.8329L7.19025 1.00619L8.16991 2.04895Z" fill="white"/>
</svg>
