<svg width="14" height="15" viewBox="0 0 14 15" fill="none" xmlns="http://www.w3.org/2000/svg">
<path d="M6.90646 6.34125L4.99799 4.46625C4.8739 4.34437 4.67217 4.34437 4.54807 4.46625C4.42398 4.58812 4.42398 4.78626 4.54807 4.90813L5.9137 6.25002H0.318191C0.142555 6.25002 0 6.39003 0 6.56253C0 6.73503 0.142555 6.87501 0.318191 6.87501H5.91373L4.5481 8.21625C4.42401 8.33812 4.42401 8.53626 4.5481 8.65813C4.60982 8.71939 4.69129 8.75001 4.77275 8.75001C4.85422 8.75001 4.93565 8.71939 4.99802 8.65875L6.90649 6.78437C6.93575 6.75563 6.95931 6.72062 6.97584 6.6825C7.00829 6.60624 7.00829 6.51999 6.97584 6.44376C6.95928 6.405 6.93572 6.36999 6.90646 6.34125Z" fill="#DF362F"/>
<path d="M6.80346 8.04126C6.68447 7.99189 6.54764 8.01937 6.45663 8.10876L5.44735 9.10064C5.08781 9.45501 4.45844 9.45501 4.09762 9.10064C3.79345 8.80251 3.73361 8.33751 3.95125 7.96939C4.00789 7.87251 4.00852 7.75377 3.95125 7.65689C3.89526 7.56 3.79026 7.5 3.67634 7.5H3.50008C3.32444 7.5 3.18188 7.64001 3.18188 7.81251V11.5625C3.18191 12.4237 3.89591 13.125 4.77281 13.125H6.6819C6.85754 13.125 7.00009 12.985 7.00009 12.8125V8.33001C7.00009 8.20374 6.92245 8.08937 6.80346 8.04126Z" fill="#DF362F"/>
<path d="M12.6261 0C12.4384 0 12.2557 0.0368848 12.0845 0.109365L8.46871 1.63125C7.96343 1.84374 7.63635 2.33063 7.63635 2.87124V13.6506C7.63635 14.3944 8.25299 15 9.01027 15C9.19799 15 9.38063 14.9631 9.55182 14.8906L13.1676 13.3688C13.6729 13.1563 14 12.6694 14 12.1288V1.34938C14 0.605625 13.3834 0 12.6261 0ZM9.54544 8.4375C9.54544 8.61 9.40288 8.75001 9.22725 8.75001C9.05161 8.75001 8.90909 8.61 8.90909 8.4375V7.18749C8.90909 7.01499 9.05164 6.87498 9.22728 6.87498C9.40292 6.87498 9.54547 7.01499 9.54547 7.18749V8.4375H9.54544Z" fill="#DF362F"/>
<path d="M9.30305 0.599385C9.44178 0.54126 9.52006 0.394395 9.48951 0.249375C9.45897 0.104385 9.32915 0 9.1777 0H4.77278C3.89588 0 3.18188 0.70125 3.18188 1.56249V5.31249C3.18188 5.48499 3.32444 5.625 3.50008 5.625H3.67634C3.68078 5.625 3.68526 5.62438 3.68908 5.625C3.86471 5.625 4.00727 5.48499 4.00727 5.31249C4.00727 5.22937 3.97419 5.15312 3.91945 5.09748C3.74062 4.73936 3.81 4.30749 4.09828 4.02437C4.45781 3.66999 5.08718 3.66999 5.448 4.02437L6.45728 5.01562C6.54892 5.10562 6.68575 5.13249 6.80411 5.08313C6.92247 5.03563 7.00012 4.92126 7.00012 4.79499V2.87124C7.00012 2.08061 7.47802 1.36811 8.21875 1.05624L9.30305 0.599385Z" fill="#DF362F"/>
</svg>
