<svg width="29" height="29" viewBox="0 0 29 29" fill="none" xmlns="http://www.w3.org/2000/svg">
<circle cx="14.5" cy="14.5" r="14.5" fill="#DF362F"/>
<path d="M10.9225 14.8359L15.4655 19.6715L14.4858 20.7143L9.94287 15.8787L10.9225 14.8359Z" fill="white"/>
<path d="M19.0571 15.8787L14.5142 20.7142L13.5345 19.6715L18.0775 14.8359L19.0571 15.8787Z" fill="white"/>
<path d="M11.7829 12.3326L15.4654 16.2523L14.4858 17.2951L10.8033 13.3754L11.7829 12.3326Z" fill="white"/>
<path d="M18.2044 13.3671L14.5142 17.295L13.5345 16.2522L17.2247 12.3243L18.2044 13.3671Z" fill="white"/>
<path d="M12.7503 9.94287L15.4655 12.833L14.4858 13.8757L11.7706 10.9856L12.7503 9.94287Z" fill="white"/>
<path d="M17.1699 11.049L14.5143 13.8757L13.5346 12.8329L16.1902 10.0062L17.1699 11.049Z" fill="white"/>
</svg>
