<svg width="40" height="40" viewBox="0 0 40 40" fill="none" xmlns="http://www.w3.org/2000/svg">
<circle cx="20" cy="20" r="18" stroke="#13ADB6"/>
<path viewBox="9 9 31 31" d="M21.5722 17.4935L19.1333 15.8674L16.9652 14.4223C16.5467 14.1439 15.9844 14.2352 15.6755 14.6317L14.3339 16.3564C14.0457 16.7306 13.5273 16.8382 13.114 16.6094C12.2037 16.103 11.1272 15.6262 8.75202 13.248C6.37682 10.8697 5.89699 9.79629 5.39061 8.88596C5.16181 8.47269 5.26935 7.95428 5.64361 7.66614L7.36831 6.32454C7.76478 6.01568 7.85609 5.45336 7.5777 5.03489L6.17693 2.93353L4.50645 0.427793C4.22213 0.00128994 3.65297 -0.126755 3.21341 0.136855L1.28688 1.29261C0.766233 1.59936 0.383514 2.0947 0.218 2.67593C-0.308834 4.59674 -0.415052 8.83397 6.37566 15.6247C13.1664 22.4154 17.4032 22.3088 19.324 21.7819C19.9053 21.6165 20.4006 21.2337 20.7074 20.7131L21.8631 18.7866C22.1268 18.347 21.9987 17.7779 21.5722 17.4935Z" fill="#6F6F6F"/>
<path viewBox="9 9 31 31" d="M12.5171 3.4137C16.0767 3.41765 18.9614 6.30228 18.9653 9.8619C18.9653 10.0714 19.1351 10.2412 19.3446 10.2412C19.5541 10.2412 19.724 10.0714 19.724 9.8619C19.7196 5.88351 16.4955 2.65948 12.5171 2.65509C12.3077 2.65509 12.1378 2.8249 12.1378 3.03442C12.1378 3.24385 12.3076 3.4137 12.5171 3.4137Z" fill="#6F6F6F"/>
<path viewBox="9 9 31 31" d="M12.517 5.68951C14.8203 5.69222 16.6867 7.55867 16.6894 9.86186C16.6894 10.0713 16.8592 10.2412 17.0687 10.2412C17.2782 10.2412 17.448 10.0714 17.448 9.86186C17.4449 7.13986 15.2391 4.934 12.517 4.93087C12.3075 4.93087 12.1377 5.10068 12.1377 5.31019C12.1377 5.5197 12.3075 5.68951 12.517 5.68951Z" fill="#6F6F6F"/>
<path viewBox="9 9 31 31" d="M12.5171 7.96537C13.564 7.96661 14.4124 8.81498 14.4136 9.8619C14.4136 10.0714 14.5834 10.2412 14.793 10.2412C15.0024 10.2412 15.1723 10.0714 15.1723 9.8619C15.1706 8.39621 13.9828 7.20844 12.5171 7.20676C12.3077 7.20676 12.1378 7.37657 12.1378 7.58609C12.1378 7.79556 12.3076 7.96537 12.5171 7.96537Z" fill="#6F6F6F"/>
</svg>
