<svg width="15" height="13" viewBox="0 0 15 13" fill="none" xmlns="http://www.w3.org/2000/svg">
<path d="M0 7.54151V11.4249C0 12.3343 0.818734 13 1.7081 13H9.49443C10.384 13 11.0127 12.3341 11.0127 11.4249V11.3729L13.8797 12.8288C13.9329 12.8564 13.9678 12.8705 14.0273 12.8705C14.5861 12.8705 15 12.4055 15 11.812V6.78648C15 6.19294 14.6098 5.72828 14.051 5.72828C13.9918 5.72828 13.9572 5.74245 13.9042 5.76963L11.0666 7.23367C10.9295 6.49573 10.3166 5.93228 9.56411 5.89637C10.3553 5.30128 10.8748 4.34576 10.8748 3.26679C10.8748 1.4656 9.44297 0 7.68076 0C6.24133 0 5.02291 0.97862 4.62437 2.31864C4.18595 1.86796 3.57987 1.58807 2.91038 1.58807C1.57671 1.58807 0.491772 2.69732 0.491772 4.06044C0.491772 4.811 0.774494 5.48334 1.29285 5.93713C0.580063 6.10813 0 6.76164 0 7.54151ZM14.0736 6.51495C14.1879 6.55046 14.2405 6.67216 14.2405 6.78648V11.812C14.2405 11.9265 14.1879 12.0484 14.074 12.0839L11.0127 10.5032V8.0873L14.0736 6.51495ZM5.07759 5.07846C5.27487 5.36261 5.51563 5.62444 5.78962 5.81854H4.52943C4.75481 5.62444 4.94127 5.3597 5.07759 5.07846ZM5.2462 3.26698C5.2462 1.89377 6.33892 0.776568 7.68209 0.776568C9.02544 0.776568 10.1182 1.89377 10.1182 3.26698C10.1182 4.63981 9.02544 5.75682 7.68209 5.75682C6.53981 5.75682 5.58152 4.94783 5.31949 3.86169C5.30886 3.72718 5.28722 3.59617 5.25627 3.46865C5.25095 3.40188 5.2462 3.33492 5.2462 3.26698ZM2.91076 2.36464C3.66456 2.36464 4.30139 2.88171 4.50266 3.58666C4.51538 3.72039 4.53778 3.85121 4.56589 3.97989C4.56703 4.00687 4.56987 4.03326 4.56987 4.06063C4.56987 4.99577 3.82557 5.75662 2.91076 5.75662C1.99576 5.75662 1.25146 4.99577 1.25146 4.06063C1.25146 3.12549 1.99576 2.36464 2.91076 2.36464ZM10.2532 11.351C10.2532 11.8329 9.87095 12.2236 9.39949 12.2236H1.61316C1.14171 12.2236 0.759494 11.8329 0.759494 11.351V7.46756C0.759494 6.98562 1.14171 6.59491 1.61316 6.59491H9.39949C9.87095 6.59491 10.2532 6.98562 10.2532 7.46756V11.351Z" fill="#DF362F"/>
<path d="M3 9H8V10H3V9Z" fill="#DF362F"/>
</svg>
