<svg width="19" height="19" viewBox="0 0 19 19" fill="none" xmlns="http://www.w3.org/2000/svg">
<path d="M19 9.5C19 14.7467 14.7467 19 9.5 19C4.25329 19 0 14.7467 0 9.5C0 4.25329 4.25329 0 9.5 0C14.7467 0 19 4.25329 19 9.5Z" fill="#DF362F"/>
<path d="M14.6778 7.87828L8.87484 13.6778C8.44512 14.1074 7.74806 14.1074 7.31793 13.6778L4.32241 10.6836C3.89253 10.2541 3.89253 9.55727 4.32241 9.12761C4.75237 8.69788 5.44938 8.69788 5.87915 9.12745L8.09662 11.3438L13.1208 6.32218C13.5508 5.89244 14.2478 5.89277 14.6776 6.32218C15.1074 6.75184 15.1074 7.44838 14.6778 7.87828Z" fill="white"/>
</svg>
