<svg width="13" height="13" viewBox="0 0 13 13" fill="none" xmlns="http://www.w3.org/2000/svg">
<path d="M6.5 0C10.0921 0 13 2.90789 13 6.5C13 10.0921 10.0921 13 6.5 13C2.90789 13 0 10.0921 0 6.5C0 2.90789 2.90789 0 6.5 0ZM6.5 12.3158C9.71579 12.3158 12.3158 9.71579 12.3158 6.5C12.3158 3.28421 9.71579 0.684211 6.5 0.684211C3.28421 0.684211 0.68421 3.28421 0.68421 6.5C0.68421 9.71579 3.28421 12.3158 6.5 12.3158ZM8.38158 7.18421C9.04868 7.18421 9.57895 7.71447 9.57895 8.38158C9.57895 9.04868 9.04868 9.57895 8.38158 9.57895C7.71447 9.57895 7.18421 9.04868 7.18421 8.38158C7.18421 7.71447 7.71447 7.18421 8.38158 7.18421ZM8.38158 8.89474C8.67237 8.89474 8.89474 8.67237 8.89474 8.38158C8.89474 8.09079 8.67237 7.86842 8.38158 7.86842C8.09079 7.86842 7.86842 8.09079 7.86842 8.38158C7.86842 8.67237 8.09079 8.89474 8.38158 8.89474ZM8.36447 3.43816C9.03158 3.43816 9.56184 3.96842 9.56184 4.63553C9.56184 5.30263 9.03158 5.83289 8.36447 5.83289C7.69737 5.83289 7.16711 5.30263 7.16711 4.63553C7.16711 3.96842 7.71447 3.43816 8.36447 3.43816ZM8.36447 5.14868C8.65526 5.14868 8.87763 4.90921 8.87763 4.63553C8.87763 4.34474 8.63816 4.12237 8.36447 4.12237C8.09079 4.12237 7.85132 4.36184 7.85132 4.63553C7.85132 4.90921 8.09079 5.14868 8.36447 5.14868ZM4.63553 7.16711C5.30263 7.16711 5.83289 7.69737 5.83289 8.36447C5.83289 9.03158 5.30263 9.56184 4.63553 9.56184C3.96842 9.56184 3.43816 9.03158 3.43816 8.36447C3.43816 7.69737 3.96842 7.16711 4.63553 7.16711ZM4.63553 8.87763C4.90921 8.87763 5.14868 8.65526 5.14868 8.36447C5.14868 8.09079 4.90921 7.85132 4.63553 7.85132C4.34474 7.85132 4.12237 8.09079 4.12237 8.36447C4.12237 8.65526 4.34474 8.87763 4.63553 8.87763ZM4.61842 3.42105C5.28553 3.42105 5.81579 3.95132 5.81579 4.61842C5.81579 5.28553 5.28553 5.81579 4.61842 5.81579C3.95132 5.81579 3.42105 5.28553 3.42105 4.61842C3.42105 3.95132 3.95132 3.42105 4.61842 3.42105ZM4.61842 5.13158C4.90921 5.13158 5.13158 4.90921 5.13158 4.61842C5.13158 4.32763 4.90921 4.10526 4.61842 4.10526C4.34474 4.10526 4.10526 4.32763 4.10526 4.61842C4.10526 4.90921 4.34474 5.13158 4.61842 5.13158Z" fill="#DF362F"/>
</svg>
