<svg width="11" height="13" viewBox="0 0 11 13" fill="none" xmlns="http://www.w3.org/2000/svg">
<path d="M10.2143 0H0.785728C0.352012 0 0 0.364012 0 0.812489V12.1875C0 12.636 0.352012 13 0.785704 13H10.2143C10.648 13 11 12.636 11 12.1875V0.812489C11 0.364012 10.648 0 10.2143 0ZM10.2143 12.1875H0.785728V0.812489H10.2143V12.1875Z" fill="#DF362F"/>
<path d="M5.10721 3.24999H8.25007C8.46614 3.24999 8.64292 3.068 8.64292 2.84374C8.64292 2.61949 8.46614 2.4375 8.25007 2.4375H5.10721C4.89035 2.4375 4.71436 2.61949 4.71436 2.84374C4.71436 3.068 4.89035 3.24999 5.10721 3.24999Z" fill="#DF362F"/>
<path d="M2.75003 5.68749H8.25003C8.4661 5.68749 8.64288 5.5055 8.64288 5.28124C8.64288 5.05699 8.4661 4.875 8.25003 4.875H2.75003C2.53317 4.875 2.35718 5.05699 2.35718 5.28124C2.35718 5.5055 2.53317 5.68749 2.75003 5.68749Z" fill="#DF362F"/>
<path d="M2.75003 8.12499H8.25003C8.4661 8.12499 8.64288 7.94218 8.64288 7.71874C8.64288 7.49531 8.4661 7.3125 8.25003 7.3125H2.75003C2.53317 7.3125 2.35718 7.49531 2.35718 7.71874C2.35718 7.94218 2.53317 8.12499 2.75003 8.12499Z" fill="#DF362F"/>
<path d="M2.75003 10.5625H8.25003C8.4661 10.5625 8.64288 10.3797 8.64288 10.1562C8.64288 9.93281 8.4661 9.75 8.25003 9.75H2.75003C2.53317 9.75 2.35718 9.93281 2.35718 10.1562C2.35718 10.3797 2.53317 10.5625 2.75003 10.5625Z" fill="#DF362F"/>
</svg>
