<svg width="23" height="23" viewBox="0 0 23 23" fill="none" xmlns="http://www.w3.org/2000/svg">
<path d="M16.7919 14.249C16.4327 14.8396 16.0415 15.4548 15.6178 16.0939C19.1847 16.6385 21.0105 17.8054 21.0105 18.3853C21.0105 19.1579 17.7752 20.9696 11.5003 20.9696C5.22495 20.9696 1.9891 19.1579 1.9891 18.3853C1.9891 17.8049 3.8149 16.6385 7.38286 16.0939C6.95859 15.4548 6.56738 14.8396 6.20823 14.249C2.68736 14.9276 0 16.3205 0 18.3858C0 21.4155 5.78597 23.0001 11.5003 23.0001C17.2146 23.0001 23.0001 21.415 23.0001 18.3858C23.0001 16.3205 20.3132 14.9276 16.7919 14.249Z" fill="white"/>
<path d="M11.5008 18.193C12.0178 18.193 12.5041 17.9419 12.8097 17.5155C14.7657 14.79 18.226 9.58559 18.226 6.86577C18.226 3.07367 15.2145 0 11.5003 0C7.7851 0 4.77466 3.07367 4.77466 6.86577C4.77466 9.58508 8.23392 14.79 10.1905 17.5155C10.4975 17.9419 10.9839 18.193 11.5008 18.193ZM8.70277 6.73027C8.70277 5.15329 9.95503 3.87494 11.5003 3.87494C13.0451 3.87494 14.2974 5.15329 14.2974 6.73027C14.2974 8.30724 13.0451 9.5856 11.5003 9.5856C9.95503 9.58611 8.70277 8.30775 8.70277 6.73027Z" fill="white"/>
</svg>
