<svg width="17" height="17" viewBox="0 0 17 17" fill="none" xmlns="http://www.w3.org/2000/svg">
<path d="M17 2.65625V14.3438C17 15.8084 15.8084 17 14.3438 17H7.66992C6.20522 17 5.01367 15.8084 5.01367 14.3438V13.0156C5.01367 12.6488 5.31094 12.3516 5.67773 12.3516C6.04453 12.3516 6.3418 12.6488 6.3418 13.0156V14.3438C6.3418 15.076 6.93764 15.6719 7.66992 15.6719H14.3438C15.076 15.6719 15.6719 15.076 15.6719 14.3438V2.65625C15.6719 1.92397 15.076 1.32812 14.3438 1.32812H7.66992C6.93764 1.32812 6.3418 1.92397 6.3418 2.65625V3.98438C6.3418 4.35117 6.04453 4.64844 5.67773 4.64844C5.31094 4.64844 5.01367 4.35117 5.01367 3.98438V2.65625C5.01367 1.19155 6.20522 0 7.66992 0H14.3438C15.8084 0 17 1.19155 17 2.65625ZM7.50105 10.2199C7.24075 10.4783 7.23906 10.8988 7.49729 11.1591C7.62712 11.29 7.79794 11.3555 7.96875 11.3555C8.13788 11.3555 8.30701 11.2913 8.43645 11.1629L9.93539 9.67573C10.2516 9.36198 10.4258 8.94448 10.4258 8.5C10.4258 8.05552 10.2516 7.63802 9.93539 7.32427L8.43645 5.83714C8.17614 5.5789 7.75565 5.58046 7.49729 5.8409C7.23906 6.1012 7.24075 6.52169 7.50105 6.77992L8.56537 7.83594H0.664062C0.297272 7.83594 0 8.13321 0 8.5C0 8.86679 0.297272 9.16406 0.664062 9.16406H8.56537L7.50105 10.2199Z" fill="#DF362F"/>
</svg>
