<svg width="17" height="19" viewBox="0 0 17 19" fill="none" xmlns="http://www.w3.org/2000/svg">
<path d="M7.35981 9.63033C10.0352 9.63017 10.9979 6.95136 11.2499 4.7509C11.5603 2.04017 10.2784 0 7.35981 0C4.44157 0 3.15904 2.04002 3.46971 4.7509C3.72196 6.95136 4.68432 9.63052 7.35981 9.63033Z" fill="#DF362F"/>
<path d="M13.2099 10.7454C13.296 10.7454 13.3815 10.748 13.4665 10.7527C13.3391 10.5711 13.1918 10.4109 13.0193 10.2821C12.5052 9.89841 11.8394 9.77252 11.2508 9.54123C10.9643 9.42869 10.7077 9.31689 10.4669 9.18961C9.65398 10.0811 8.59393 10.5474 7.35948 10.5475C6.12545 10.5475 5.06548 10.0812 4.25267 9.18961C4.01182 9.31692 3.7552 9.42869 3.46874 9.54123C2.88014 9.77255 2.21437 9.89841 1.70025 10.2821C0.811159 10.9457 0.581389 12.4385 0.400858 13.4568C0.25187 14.2974 0.151778 15.1553 0.122564 16.0091C0.099932 16.6705 0.426471 16.7632 0.979769 16.9628C1.67255 17.2127 2.38788 17.3982 3.10802 17.5503C4.49877 17.8439 5.93234 18.0696 7.35973 18.0797C8.05137 18.0748 8.7444 18.019 9.43334 17.9297C8.92323 17.1906 8.62404 16.2953 8.62404 15.3313C8.62407 12.8026 10.6813 10.7454 13.2099 10.7454Z" fill="#DF362F"/>
<path d="M13.2098 11.6626C11.1837 11.6626 9.54114 13.3052 9.54114 15.3313C9.54114 17.3574 11.1837 19 13.2098 19C15.236 19 16.8786 17.3574 16.8786 15.3313C16.8786 13.3052 15.236 11.6626 13.2098 11.6626ZM14.8149 15.9607H13.8393V16.9363C13.8393 17.2839 13.5575 17.5658 13.2099 17.5658C12.8622 17.5658 12.5804 17.2839 12.5804 16.9363V15.9607H11.6048C11.2572 15.9607 10.9753 15.6789 10.9753 15.3312C10.9753 14.9836 11.2571 14.7017 11.6048 14.7017H12.5804V13.7262C12.5804 13.3785 12.8622 13.0967 13.2099 13.0967C13.5575 13.0967 13.8393 13.3785 13.8393 13.7262V14.7017H14.8149C15.1626 14.7017 15.4444 14.9836 15.4444 15.3312C15.4444 15.6789 15.1626 15.9607 14.8149 15.9607Z" fill="#DF362F"/>
</svg>
